<?xml version="1.0" encoding="utf-8"?>
<!-- Generator: Adobe Illustrator 22.0.1, SVG Export Plug-In . SVG Version: 6.00 Build 0)  -->
<svg version="1.1" id="图层_1" xmlns="http://www.w3.org/2000/svg" xmlns:xlink="http://www.w3.org/1999/xlink" x="0px" y="0px"
	 viewBox="0 0 172.9 56.7" style="enable-background:new 0 0 172.9 56.7;" xml:space="preserve">
<style type="text/css">
	.st0{fill-rule:evenodd;clip-rule:evenodd;fill:#FFFFFF;}
	.st1{fill-rule:evenodd;clip-rule:evenodd;fill:url(#SVGID_1_);}
	.st2{fill-rule:evenodd;clip-rule:evenodd;fill:url(#SVGID_2_);}
	.st3{fill-rule:evenodd;clip-rule:evenodd;fill:url(#SVGID_3_);}
	.st4{fill-rule:evenodd;clip-rule:evenodd;fill:url(#SVGID_4_);}
</style>
<path class="st0" d="M112.4,47.4c0.2-0.3,0.5-0.7,0.7-1c0.2-0.2,0.3-0.5,0.4-0.8c0.1-0.3,0.3-0.5,0.4-0.8c0.2-0.4,0.3-0.7,0.5-1.1
	c0.1-0.2,0.2-0.3,0.2-0.5c0.2-0.5,0.4-1,0.5-1.6c0,0,0-0.1,0-0.1c0,0,0,0,0,0c0.2-0.6,0.3-1.2,0.4-1.8c0.1-0.3,0.1-0.6,0.1-0.9
	c0-0.3,0.1-0.5,0.1-0.8c0-0.5,0-1,0-1.4c0-0.1,0-0.2,0-0.3c0-0.5-0.1-0.9-0.1-1.3c0-0.1,0-0.3,0-0.4c-0.1-0.4-0.1-0.8-0.2-1.1
	c0-0.2-0.1-0.4-0.1-0.6c-0.1-0.3-0.2-0.6-0.2-0.9c-0.1-0.3-0.2-0.6-0.2-0.8c-0.1-0.2-0.2-0.4-0.2-0.6c-0.1-0.4-0.3-0.7-0.4-1.1
	c-0.1-0.1-0.1-0.2-0.2-0.4c-0.2-0.4-0.4-0.8-0.6-1.2c0-0.1-0.1-0.2-0.2-0.3c-0.2-0.4-0.5-0.8-0.8-1.2c-0.2-0.2-0.3-0.4-0.5-0.7
	c-0.2-0.2-0.4-0.5-0.6-0.7c-0.4-0.5-0.8-0.9-1.3-1.3c0,0,0,0,0,0c0,0-0.1-0.1-0.1-0.1c-0.4-0.4-0.8-0.7-1.3-1.1
	c-0.1-0.1-0.3-0.2-0.4-0.3c-0.3-0.2-0.7-0.5-1-0.7c-0.3-0.2-0.5-0.3-0.8-0.4c-0.3-0.1-0.5-0.3-0.8-0.4c-0.4-0.2-0.8-0.3-1.1-0.5
	c-0.2-0.1-0.3-0.1-0.5-0.2c-0.5-0.2-1.1-0.4-1.6-0.5c0,0-0.1,0-0.1,0c0,0,0,0,0,0c-0.6-0.2-1.2-0.3-1.8-0.4c-0.3,0-0.6-0.1-0.9-0.1
	c-0.3,0-0.5-0.1-0.8-0.1c-0.5,0-1,0-1.4,0c-0.1,0-0.2,0-0.3,0c-0.5,0-0.9,0.1-1.3,0.1c-0.1,0-0.3,0-0.4,0c-0.4,0-0.8,0.1-1.1,0.2
	c-0.2,0-0.4,0.1-0.6,0.1c-0.3,0.1-0.6,0.2-0.9,0.2c-0.3,0.1-0.6,0.2-0.9,0.3c-0.2,0.1-0.4,0.2-0.6,0.2c-0.4,0.1-0.7,0.3-1.1,0.4
	c-0.1,0.1-0.2,0.1-0.4,0.2c-0.4,0.2-0.8,0.4-1.2,0.6c-0.1,0-0.2,0.1-0.2,0.2c-0.4,0.2-0.8,0.5-1.2,0.8c-0.2,0.1-0.4,0.3-0.6,0.5
	c-0.3,0.2-0.5,0.4-0.8,0.6c-0.5,0.4-0.9,0.8-1.3,1.3c0,0,0,0,0,0c0,0-0.1,0.1-0.1,0.1c-0.4,0.4-0.7,0.8-1.1,1.3
	c-0.1,0.1-0.2,0.3-0.3,0.5c-0.2,0.3-0.5,0.7-0.7,1c-0.2,0.3-0.3,0.5-0.4,0.8c-0.1,0.3-0.3,0.5-0.4,0.8c-0.2,0.4-0.3,0.7-0.5,1.1
	c-0.1,0.2-0.2,0.3-0.2,0.5c-0.2,0.5-0.4,1-0.5,1.6c0,0,0,0.1,0,0.1c0,0,0,0,0,0c-0.2,0.6-0.3,1.2-0.4,1.8c-0.1,0.3-0.1,0.7-0.1,1
	c0,0.3-0.1,0.5-0.1,0.8c0,0.5,0,1,0,1.5c0,0.1,0,0.2,0,0.3c0,0.5,0.1,0.9,0.1,1.3c0,0.1,0,0.3,0,0.4c0,0.4,0.1,0.8,0.2,1.1
	c0,0.2,0.1,0.4,0.1,0.6c0.1,0.3,0.2,0.6,0.2,0.9c0.1,0.3,0.2,0.6,0.2,0.9c0.1,0.2,0.2,0.4,0.2,0.6c0.1,0.4,0.3,0.7,0.4,1.1
	c0.1,0.1,0.1,0.2,0.2,0.4c0.2,0.4,0.4,0.8,0.6,1.2c0,0.1,0.1,0.2,0.2,0.2c0.2,0.4,0.5,0.8,0.8,1.2c0.1,0.2,0.3,0.4,0.5,0.6
	c0.2,0.3,0.4,0.5,0.6,0.8c0.4,0.5,0.8,0.9,1.3,1.3c0,0,0,0,0,0c0,0,0.1,0.1,0.1,0.1c0.4,0.4,0.8,0.7,1.2,1.1
	c0.1,0.1,0.3,0.2,0.5,0.3c0.3,0.2,0.7,0.5,1,0.7c0.2,0.2,0.5,0.3,0.8,0.4c0.3,0.1,0.5,0.3,0.8,0.4c0.4,0.2,0.7,0.3,1.1,0.5
	c0.2,0.1,0.3,0.2,0.5,0.2c0.5,0.2,1,0.4,1.6,0.5c0,0,0.1,0,0.1,0c0,0,0,0,0,0c0.6,0.2,1.2,0.3,1.8,0.4c0.3,0.1,0.7,0.1,1,0.1
	c0.3,0,0.5,0.1,0.8,0.1c0.5,0,1,0,1.4,0c0.1,0,0.2,0,0.3,0c0.5,0,0.9-0.1,1.3-0.1c0.1,0,0.3,0,0.4,0c0.4,0,0.7-0.1,1.1-0.2
	c0.2,0,0.4-0.1,0.6-0.1c0.3-0.1,0.6-0.2,0.8-0.2c0.3-0.1,0.6-0.2,0.9-0.3c0.2-0.1,0.4-0.1,0.6-0.2c0.4-0.1,0.7-0.3,1.1-0.4
	c0.1-0.1,0.2-0.1,0.3-0.2c0.4-0.2,0.8-0.4,1.2-0.6c0.1,0,0.2-0.1,0.2-0.1c0.4-0.2,0.8-0.5,1.2-0.8c0.2-0.1,0.4-0.3,0.6-0.5
	c0.3-0.2,0.5-0.4,0.8-0.6c0.5-0.4,0.9-0.8,1.3-1.3c0,0,0,0,0,0c0,0,0.1-0.1,0.1-0.1c0.4-0.4,0.7-0.8,1.1-1.3
	C112.2,47.7,112.3,47.5,112.4,47.4z M111,38.5c0,0.2,0,0.3-0.1,0.5c0,0.2-0.1,0.3-0.1,0.5c0,0.2-0.1,0.4-0.1,0.7
	c0,0.1-0.1,0.2-0.1,0.3c-0.1,0.3-0.2,0.6-0.3,0.9c0,0.1-0.1,0.3-0.1,0.4c-0.1,0.3-0.2,0.5-0.3,0.8c-0.1,0.1-0.1,0.3-0.2,0.4
	c-0.1,0.2-0.3,0.5-0.4,0.7c-0.1,0.1-0.2,0.3-0.2,0.4c-0.1,0.2-0.3,0.4-0.4,0.6c-0.1,0.1-0.2,0.3-0.3,0.4c-0.2,0.3-0.5,0.6-0.8,0.9
	c-0.3,0.3-0.6,0.6-1,0.9c-0.2,0.2-0.4,0.3-0.6,0.5c-0.1,0.1-0.3,0.2-0.4,0.3c-0.3,0.2-0.6,0.4-0.9,0.6c-0.1,0-0.1,0.1-0.2,0.1
	c-0.3,0.2-0.6,0.3-0.9,0.5c-0.1,0-0.2,0.1-0.3,0.1c-0.3,0.1-0.5,0.2-0.8,0.3c-0.1,0.1-0.3,0.1-0.4,0.2c-0.2,0.1-0.4,0.1-0.6,0.2
	c-0.2,0.1-0.4,0.1-0.6,0.2c-0.2,0-0.3,0.1-0.5,0.1C100,50,99.8,50,99.5,50c-0.1,0-0.2,0-0.3,0c-0.3,0-0.7,0.1-1,0.1
	c-0.1,0-0.1,0-0.2,0c-0.4,0-0.7,0-1.1,0c-0.2,0-0.4,0-0.6-0.1c-0.2,0-0.4,0-0.6-0.1c-0.4-0.1-0.9-0.2-1.3-0.3c0,0-0.1,0-0.1,0
	c-0.4-0.1-0.8-0.2-1.2-0.4c-0.1,0-0.2-0.1-0.4-0.2c-0.3-0.1-0.6-0.2-0.8-0.4c-0.2-0.1-0.4-0.2-0.6-0.3c-0.2-0.1-0.4-0.2-0.6-0.3
	c-0.3-0.2-0.5-0.3-0.7-0.5c-0.1-0.1-0.2-0.2-0.3-0.2c-0.3-0.2-0.6-0.5-0.9-0.8c0,0-0.1-0.1-0.1-0.1c-0.3-0.3-0.6-0.6-0.9-1
	c-0.2-0.2-0.3-0.4-0.5-0.7c-0.1-0.1-0.2-0.2-0.3-0.4c-0.2-0.3-0.4-0.6-0.6-0.9c0-0.1-0.1-0.1-0.1-0.2c-0.2-0.3-0.3-0.6-0.5-0.9
	c0-0.1-0.1-0.2-0.1-0.3c-0.1-0.3-0.2-0.5-0.3-0.8c-0.1-0.1-0.1-0.3-0.2-0.4c-0.1-0.2-0.1-0.4-0.2-0.6c-0.1-0.2-0.1-0.4-0.2-0.6
	c0-0.2-0.1-0.3-0.1-0.5c-0.1-0.3-0.1-0.5-0.1-0.8c0-0.1,0-0.2,0-0.3c0-0.3-0.1-0.7-0.1-1c0-0.1,0-0.2,0-0.2c0-0.4,0-0.7,0-1.1
	c0-0.2,0-0.4,0.1-0.6c0-0.2,0-0.4,0.1-0.7c0.1-0.4,0.2-0.9,0.3-1.3c0,0,0-0.1,0-0.1c0.1-0.4,0.2-0.8,0.4-1.2c0-0.1,0.1-0.2,0.2-0.4
	c0.1-0.3,0.2-0.6,0.4-0.8c0.1-0.2,0.2-0.4,0.3-0.6c0.1-0.2,0.2-0.4,0.3-0.6c0.2-0.3,0.3-0.5,0.5-0.7c0.1-0.1,0.2-0.2,0.2-0.3
	c0.2-0.3,0.5-0.6,0.8-0.9c0,0,0.1-0.1,0.1-0.1c0.3-0.3,0.6-0.6,1-0.9c0.2-0.2,0.4-0.3,0.5-0.4c0.2-0.1,0.3-0.2,0.5-0.4
	c0.3-0.2,0.6-0.4,0.9-0.6c0.1,0,0.1-0.1,0.2-0.1c0.3-0.2,0.6-0.3,0.9-0.5c0.1,0,0.2-0.1,0.3-0.1c0.3-0.1,0.5-0.2,0.8-0.3
	c0.1-0.1,0.3-0.1,0.4-0.2c0.2-0.1,0.4-0.1,0.6-0.2c0.2-0.1,0.4-0.1,0.6-0.2c0.1,0,0.3-0.1,0.5-0.1c0.3-0.1,0.6-0.1,0.8-0.1
	c0.1,0,0.2,0,0.3,0c0.3,0,0.7-0.1,1-0.1c0.1,0,0.1,0,0.2,0c0.4,0,0.7,0,1.1,0c0.2,0,0.4,0,0.5,0.1c0.2,0,0.5,0,0.7,0.1
	c0.4,0.1,0.9,0.2,1.3,0.3c0.4,0.1,0.8,0.2,1.1,0.4c0.2,0.1,0.3,0.1,0.4,0.2c0.2,0.1,0.5,0.2,0.7,0.3c0.1,0.1,0.3,0.1,0.4,0.2
	c0.2,0.1,0.5,0.2,0.7,0.4c0.1,0.1,0.2,0.2,0.4,0.2c0.2,0.2,0.5,0.3,0.7,0.5c0.1,0.1,0.2,0.2,0.3,0.2c0.2,0.2,0.5,0.4,0.7,0.6
	c0.1,0.1,0.2,0.2,0.3,0.2c0.2,0.2,0.3,0.3,0.5,0.5c0.1,0.1,0.2,0.2,0.3,0.4c0.1,0.1,0.2,0.3,0.3,0.4c0.1,0.2,0.3,0.3,0.4,0.5
	c0.6,0.8,1.1,1.7,1.5,2.6c0.1,0.2,0.2,0.4,0.2,0.6c0.1,0.2,0.1,0.3,0.2,0.5c0.1,0.2,0.1,0.4,0.2,0.5c0.1,0.2,0.1,0.4,0.2,0.6
	c0,0.1,0.1,0.3,0.1,0.4c0,0.2,0.1,0.5,0.1,0.7c0.1,1,0.2,2,0.1,3C111,38.1,111,38.3,111,38.5z"/>
<linearGradient id="SVGID_1_" gradientUnits="userSpaceOnUse" x1="1.2236" y1="57.6369" x2="26.8745" y2="45.6757">
	<stop  offset="0.5" style="stop-color:#41CEE5"/>
	<stop  offset="1" style="stop-color:#0499A5"/>
</linearGradient>
<path class="st1" d="M9.5,40.8L0.6,56.3h31.2l-8.9-15.5C18.4,40.8,14,40.8,9.5,40.8z"/>
<linearGradient id="SVGID_2_" gradientUnits="userSpaceOnUse" x1="1.2237" y1="0.8629" x2="26.8746" y2="12.8241">
	<stop  offset="0.5" style="stop-color:#41CEE5"/>
	<stop  offset="1" style="stop-color:#0499A5"/>
</linearGradient>
<polygon class="st2" points="0.6,2.2 9.5,17.7 22.9,17.7 31.8,2.2 "/>
<linearGradient id="SVGID_3_" gradientUnits="userSpaceOnUse" x1="31.8262" y1="29.2499" x2="67.8394" y2="29.2499">
	<stop  offset="0" style="stop-color:#FFFFFF"/>
	<stop  offset="1" style="stop-color:#40485B"/>
</linearGradient>
<path class="st3" d="M40.8,2.2h-8.9h0l8.9,15.5h0c6.4,0,11.6,5.2,11.6,11.6c0,6.4-5.2,11.6-11.6,11.6c0,0,0,0,0,0l-8.9,15.5h0h0h8.9
	c14.9,0,27-12.1,27-27C67.8,14.3,55.7,2.2,40.8,2.2z"/>
<linearGradient id="SVGID_4_" gradientUnits="userSpaceOnUse" x1="16.212" y1="29.2499" x2="40.7487" y2="29.2499">
	<stop  offset="0.2" style="stop-color:#9BD815"/>
	<stop  offset="1" style="stop-color:#4D9527"/>
</linearGradient>
<polygon class="st4" points="34.1,29.2 40.7,17.7 31.8,2.2 22.9,17.7 16.2,29.2 22.9,40.8 31.8,56.3 40.7,40.8 "/>
<path class="st0" d="M163.5,31.7c4,1.1,6.9,4,8.1,7.6l-14.3,6.1c-0.2-0.3-0.4-0.6-0.6-1l8.3-6.8h0c-0.8-0.7-1.7-1.2-2.8-1.5
	c-3.8-1-7.6,1.2-8.6,5c-1,3.8,1.3,7.5,5,8.6c4.5,1.3,9.3-0.3,12-4.3h1.3c0,0.2-0.1,0.3-0.1,0.5c-1.7,6.3-8.1,10-14.4,8.3
	c-6.3-1.7-10-8.1-8.3-14.4C150.7,33.8,157.2,30.1,163.5,31.7z"/>
<path class="st0" d="M128.1,36.6c3.8-1.4,7.1-1.3,8.6,0.3c1.8,1.8,1.5,4.5,1.5,6.3v0v11.7h4.7c0-4.7,0-9.3,0-14
	c0-7.7-8.1-11.2-14.9-7.2V36.6z"/>
<polygon class="st0" points="119.9,36.2 121.8,36.2 121.8,54.9 126.5,54.9 126.5,36.2 126.5,31.4 126.5,29.8 "/>
</svg>
